<svg xmlns="http://www.w3.org/2000/svg" xmlns:xlink="http://www.w3.org/1999/xlink" width="500" zoomAndPan="magnify" viewBox="0 0 375 374.999991" height="500" preserveAspectRatio="xMidYMid meet" version="1.0"><defs><g/><clipPath id="e8f97492ba"><path d="M 119.503906 86.484375 L 255.253906 86.484375 L 255.253906 209.484375 L 119.503906 209.484375 Z M 119.503906 86.484375 " clip-rule="nonzero"/></clipPath></defs><g clip-path="url(#e8f97492ba)"><path fill="#004aad" d="M 219.699219 99.472656 L 190.609375 99.472656 L 190.609375 89.769531 C 190.609375 89.339844 190.527344 88.925781 190.363281 88.53125 C 190.199219 88.132812 189.96875 87.785156 189.664062 87.480469 C 189.359375 87.175781 189.011719 86.945312 188.617188 86.78125 C 188.21875 86.617188 187.808594 86.535156 187.378906 86.535156 C 186.949219 86.535156 186.539062 86.617188 186.140625 86.78125 C 185.746094 86.945312 185.394531 87.175781 185.09375 87.480469 C 184.789062 87.785156 184.554688 88.132812 184.390625 88.53125 C 184.226562 88.925781 184.148438 89.339844 184.148438 89.769531 L 184.148438 99.472656 L 155.058594 99.472656 C 154.527344 99.472656 154 99.496094 153.472656 99.550781 C 152.945312 99.601562 152.425781 99.679688 151.90625 99.785156 C 151.386719 99.886719 150.875 100.015625 150.367188 100.171875 C 149.863281 100.324219 149.363281 100.503906 148.875 100.707031 C 148.386719 100.910156 147.910156 101.136719 147.441406 101.386719 C 146.976562 101.632812 146.523438 101.90625 146.082031 102.199219 C 145.640625 102.496094 145.21875 102.808594 144.808594 103.144531 C 144.398438 103.480469 144.007812 103.835938 143.632812 104.210938 C 143.261719 104.585938 142.90625 104.976562 142.570312 105.386719 C 142.234375 105.796875 141.917969 106.222656 141.625 106.660156 C 141.332031 107.101562 141.058594 107.554688 140.808594 108.023438 C 140.558594 108.488281 140.332031 108.96875 140.128906 109.457031 C 139.929688 109.945312 139.75 110.441406 139.597656 110.949219 C 139.441406 111.457031 139.3125 111.96875 139.210938 112.488281 C 139.105469 113.007812 139.027344 113.53125 138.976562 114.058594 C 138.921875 114.585938 138.898438 115.113281 138.898438 115.644531 L 138.898438 173.859375 C 138.898438 174.390625 138.921875 174.917969 138.976562 175.445312 C 139.027344 175.972656 139.105469 176.496094 139.210938 177.015625 C 139.3125 177.535156 139.441406 178.046875 139.597656 178.554688 C 139.75 179.058594 139.929688 179.558594 140.128906 180.046875 C 140.332031 180.535156 140.558594 181.015625 140.808594 181.480469 C 141.058594 181.949219 141.332031 182.402344 141.625 182.839844 C 141.917969 183.28125 142.234375 183.707031 142.570312 184.117188 C 142.90625 184.523438 143.261719 184.917969 143.632812 185.292969 C 144.007812 185.664062 144.398438 186.019531 144.808594 186.355469 C 145.21875 186.691406 145.640625 187.007812 146.082031 187.300781 C 146.523438 187.597656 146.976562 187.867188 147.441406 188.117188 C 147.910156 188.367188 148.386719 188.59375 148.875 188.796875 C 149.363281 189 149.863281 189.179688 150.367188 189.332031 C 150.875 189.488281 151.386719 189.617188 151.90625 189.71875 C 152.425781 189.824219 152.945312 189.902344 153.472656 189.953125 C 154 190.003906 154.527344 190.03125 155.058594 190.03125 L 172.71875 190.03125 L 184.691406 208 C 184.835938 208.21875 185.007812 208.417969 185.207031 208.597656 C 185.402344 208.777344 185.617188 208.929688 185.855469 209.054688 C 186.089844 209.179688 186.335938 209.277344 186.59375 209.339844 C 186.851562 209.40625 187.113281 209.4375 187.378906 209.4375 C 187.644531 209.4375 187.90625 209.40625 188.164062 209.339844 C 188.421875 209.277344 188.667969 209.179688 188.902344 209.054688 C 189.136719 208.929688 189.355469 208.777344 189.550781 208.597656 C 189.746094 208.417969 189.921875 208.21875 190.066406 208 L 202.035156 190.03125 L 219.699219 190.03125 C 220.230469 190.03125 220.757812 190.003906 221.285156 189.953125 C 221.808594 189.902344 222.332031 189.824219 222.851562 189.71875 C 223.371094 189.617188 223.882812 189.488281 224.390625 189.332031 C 224.894531 189.179688 225.394531 189 225.882812 188.796875 C 226.371094 188.59375 226.847656 188.367188 227.316406 188.117188 C 227.78125 187.867188 228.234375 187.597656 228.675781 187.300781 C 229.113281 187.007812 229.539062 186.691406 229.949219 186.355469 C 230.355469 186.019531 230.75 185.664062 231.125 185.292969 C 231.496094 184.917969 231.851562 184.523438 232.1875 184.117188 C 232.523438 183.707031 232.839844 183.28125 233.132812 182.839844 C 233.425781 182.402344 233.699219 181.949219 233.949219 181.480469 C 234.199219 181.015625 234.425781 180.535156 234.625 180.046875 C 234.828125 179.558594 235.007812 179.058594 235.160156 178.554688 C 235.316406 178.046875 235.445312 177.535156 235.546875 177.015625 C 235.652344 176.496094 235.730469 175.972656 235.78125 175.445312 C 235.832031 174.917969 235.859375 174.390625 235.859375 173.859375 L 235.859375 115.644531 C 235.859375 115.113281 235.832031 114.585938 235.78125 114.058594 C 235.730469 113.53125 235.652344 113.007812 235.546875 112.488281 C 235.445312 111.96875 235.316406 111.457031 235.160156 110.949219 C 235.007812 110.441406 234.828125 109.945312 234.625 109.457031 C 234.425781 108.96875 234.199219 108.488281 233.949219 108.023438 C 233.699219 107.554688 233.425781 107.101562 233.132812 106.660156 C 232.839844 106.222656 232.523438 105.796875 232.1875 105.386719 C 231.851562 104.976562 231.496094 104.585938 231.125 104.210938 C 230.75 103.835938 230.355469 103.480469 229.949219 103.144531 C 229.539062 102.808594 229.113281 102.496094 228.675781 102.199219 C 228.234375 101.90625 227.78125 101.632812 227.316406 101.386719 C 226.847656 101.136719 226.371094 100.910156 225.882812 100.707031 C 225.394531 100.503906 224.894531 100.324219 224.390625 100.171875 C 223.882812 100.015625 223.371094 99.886719 222.851562 99.785156 C 222.332031 99.679688 221.808594 99.601562 221.285156 99.550781 C 220.757812 99.496094 220.230469 99.472656 219.699219 99.472656 Z M 229.398438 173.859375 C 229.394531 174.496094 229.332031 175.128906 229.207031 175.753906 C 229.082031 176.378906 228.898438 176.984375 228.65625 177.570312 C 228.410156 178.160156 228.113281 178.71875 227.757812 179.25 C 227.40625 179.777344 227.003906 180.269531 226.554688 180.71875 C 226.101562 181.167969 225.613281 181.570312 225.085938 181.925781 C 224.554688 182.277344 223.996094 182.578125 223.410156 182.824219 C 222.820312 183.066406 222.214844 183.25 221.589844 183.375 C 220.96875 183.5 220.335938 183.5625 219.699219 183.5625 L 200.308594 183.5625 C 199.765625 183.566406 199.257812 183.691406 198.78125 183.949219 C 198.304688 184.203125 197.917969 184.554688 197.617188 185.003906 L 187.378906 200.375 L 177.140625 185.003906 C 176.839844 184.554688 176.449219 184.203125 175.972656 183.949219 C 175.5 183.691406 174.988281 183.566406 174.449219 183.5625 L 155.058594 183.5625 C 154.421875 183.5625 153.789062 183.5 153.167969 183.375 C 152.542969 183.25 151.9375 183.066406 151.347656 182.824219 C 150.761719 182.578125 150.203125 182.277344 149.671875 181.925781 C 149.144531 181.570312 148.652344 181.167969 148.203125 180.71875 C 147.753906 180.269531 147.351562 179.777344 147 179.25 C 146.644531 178.71875 146.34375 178.160156 146.101562 177.570312 C 145.859375 176.984375 145.671875 176.378906 145.550781 175.753906 C 145.425781 175.128906 145.363281 174.496094 145.359375 173.859375 L 145.359375 164.15625 L 229.398438 164.15625 Z M 229.398438 157.6875 L 145.359375 157.6875 L 145.359375 115.644531 C 145.363281 115.003906 145.425781 114.375 145.550781 113.75 C 145.671875 113.125 145.859375 112.519531 146.101562 111.929688 C 146.34375 111.34375 146.644531 110.785156 147 110.253906 C 147.351562 109.726562 147.753906 109.234375 148.203125 108.785156 C 148.652344 108.335938 149.144531 107.933594 149.671875 107.578125 C 150.203125 107.222656 150.761719 106.925781 151.347656 106.679688 C 151.9375 106.4375 152.542969 106.253906 153.167969 106.128906 C 153.789062 106.003906 154.421875 105.941406 155.058594 105.941406 L 219.699219 105.941406 C 220.335938 105.941406 220.96875 106.003906 221.589844 106.128906 C 222.214844 106.253906 222.820312 106.4375 223.410156 106.679688 C 223.996094 106.925781 224.554688 107.222656 225.085938 107.578125 C 225.613281 107.933594 226.101562 108.335938 226.554688 108.785156 C 227.003906 109.234375 227.40625 109.726562 227.757812 110.253906 C 228.113281 110.785156 228.410156 111.34375 228.65625 111.929688 C 228.898438 112.519531 229.082031 113.125 229.207031 113.75 C 229.332031 114.375 229.394531 115.003906 229.398438 115.644531 Z M 174.449219 135.046875 C 174.449219 135.472656 174.410156 135.894531 174.324219 136.3125 C 174.242188 136.726562 174.121094 137.132812 173.957031 137.523438 C 173.796875 137.917969 173.597656 138.289062 173.359375 138.640625 C 173.125 138.996094 172.855469 139.324219 172.558594 139.621094 C 172.257812 139.921875 171.929688 140.191406 171.578125 140.425781 C 171.222656 140.664062 170.851562 140.863281 170.460938 141.023438 C 170.066406 141.1875 169.664062 141.308594 169.246094 141.394531 C 168.832031 141.476562 168.410156 141.515625 167.984375 141.515625 C 167.5625 141.515625 167.140625 141.476562 166.726562 141.394531 C 166.308594 141.308594 165.902344 141.1875 165.511719 141.023438 C 165.121094 140.863281 164.746094 140.664062 164.394531 140.425781 C 164.042969 140.191406 163.714844 139.921875 163.414062 139.621094 C 163.113281 139.324219 162.847656 138.996094 162.609375 138.640625 C 162.375 138.289062 162.175781 137.917969 162.011719 137.523438 C 161.851562 137.132812 161.730469 136.726562 161.644531 136.3125 C 161.5625 135.894531 161.523438 135.472656 161.523438 135.046875 C 161.523438 134.625 161.5625 134.203125 161.644531 133.785156 C 161.730469 133.371094 161.851562 132.964844 162.011719 132.574219 C 162.175781 132.179688 162.375 131.808594 162.609375 131.453125 C 162.847656 131.101562 163.113281 130.773438 163.414062 130.476562 C 163.714844 130.175781 164.042969 129.90625 164.394531 129.671875 C 164.746094 129.433594 165.121094 129.234375 165.511719 129.074219 C 165.902344 128.910156 166.308594 128.789062 166.726562 128.703125 C 167.140625 128.621094 167.5625 128.578125 167.984375 128.578125 C 168.410156 128.578125 168.832031 128.621094 169.246094 128.703125 C 169.664062 128.789062 170.066406 128.910156 170.460938 129.074219 C 170.851562 129.234375 171.222656 129.433594 171.578125 129.671875 C 171.929688 129.90625 172.257812 130.175781 172.558594 130.476562 C 172.855469 130.773438 173.125 131.101562 173.359375 131.453125 C 173.597656 131.808594 173.796875 132.179688 173.957031 132.574219 C 174.121094 132.964844 174.242188 133.371094 174.324219 133.785156 C 174.410156 134.203125 174.449219 134.625 174.449219 135.046875 Z M 213.234375 135.046875 C 213.234375 135.472656 213.195312 135.894531 213.113281 136.3125 C 213.027344 136.726562 212.90625 137.132812 212.742188 137.523438 C 212.582031 137.917969 212.382812 138.289062 212.144531 138.640625 C 211.910156 138.996094 211.640625 139.324219 211.34375 139.621094 C 211.042969 139.921875 210.714844 140.191406 210.363281 140.425781 C 210.011719 140.664062 209.636719 140.863281 209.246094 141.023438 C 208.851562 141.1875 208.449219 141.308594 208.03125 141.394531 C 207.617188 141.476562 207.195312 141.515625 206.773438 141.515625 C 206.347656 141.515625 205.925781 141.476562 205.511719 141.394531 C 205.09375 141.308594 204.691406 141.1875 204.296875 141.023438 C 203.90625 140.863281 203.53125 140.664062 203.179688 140.425781 C 202.828125 140.191406 202.5 139.921875 202.199219 139.621094 C 201.902344 139.324219 201.632812 138.996094 201.398438 138.640625 C 201.160156 138.289062 200.960938 137.917969 200.800781 137.523438 C 200.636719 137.132812 200.515625 136.726562 200.429688 136.3125 C 200.347656 135.894531 200.308594 135.472656 200.308594 135.046875 C 200.308594 134.625 200.347656 134.203125 200.429688 133.785156 C 200.515625 133.371094 200.636719 132.964844 200.800781 132.574219 C 200.960938 132.179688 201.160156 131.808594 201.398438 131.453125 C 201.632812 131.101562 201.902344 130.773438 202.199219 130.476562 C 202.5 130.175781 202.828125 129.90625 203.179688 129.671875 C 203.53125 129.433594 203.90625 129.234375 204.296875 129.074219 C 204.691406 128.910156 205.09375 128.789062 205.511719 128.703125 C 205.925781 128.621094 206.347656 128.578125 206.773438 128.578125 C 207.195312 128.578125 207.617188 128.621094 208.03125 128.703125 C 208.449219 128.789062 208.851562 128.910156 209.246094 129.074219 C 209.636719 129.234375 210.011719 129.433594 210.363281 129.671875 C 210.714844 129.90625 211.042969 130.175781 211.34375 130.476562 C 211.640625 130.773438 211.910156 131.101562 212.144531 131.453125 C 212.382812 131.808594 212.582031 132.179688 212.742188 132.574219 C 212.90625 132.964844 213.027344 133.371094 213.113281 133.785156 C 213.195312 134.203125 213.234375 134.625 213.234375 135.046875 Z M 125.96875 122.113281 L 125.96875 147.984375 C 125.96875 148.414062 125.886719 148.828125 125.722656 149.222656 C 125.558594 149.621094 125.324219 149.96875 125.019531 150.273438 C 124.71875 150.578125 124.367188 150.808594 123.972656 150.972656 C 123.578125 151.136719 123.164062 151.21875 122.734375 151.21875 C 122.308594 151.21875 121.894531 151.136719 121.5 150.972656 C 121.101562 150.808594 120.753906 150.578125 120.449219 150.273438 C 120.148438 149.96875 119.914062 149.621094 119.75 149.222656 C 119.585938 148.828125 119.503906 148.414062 119.503906 147.984375 L 119.503906 122.113281 C 119.503906 121.683594 119.585938 121.269531 119.75 120.875 C 119.914062 120.476562 120.148438 120.128906 120.449219 119.824219 C 120.753906 119.519531 121.101562 119.289062 121.5 119.125 C 121.894531 118.960938 122.308594 118.878906 122.734375 118.878906 C 123.164062 118.878906 123.578125 118.960938 123.972656 119.125 C 124.367188 119.289062 124.71875 119.519531 125.019531 119.824219 C 125.324219 120.128906 125.558594 120.476562 125.722656 120.875 C 125.886719 121.269531 125.96875 121.683594 125.96875 122.113281 Z M 255.253906 122.113281 L 255.253906 147.984375 C 255.253906 148.414062 255.171875 148.828125 255.007812 149.222656 C 254.84375 149.621094 254.609375 149.96875 254.308594 150.273438 C 254.003906 150.578125 253.65625 150.808594 253.257812 150.972656 C 252.863281 151.136719 252.449219 151.21875 252.023438 151.21875 C 251.59375 151.21875 251.179688 151.136719 250.785156 150.972656 C 250.386719 150.808594 250.039062 150.578125 249.734375 150.273438 C 249.433594 149.96875 249.199219 149.621094 249.035156 149.222656 C 248.871094 148.828125 248.789062 148.414062 248.789062 147.984375 L 248.789062 122.113281 C 248.789062 121.683594 248.871094 121.269531 249.035156 120.875 C 249.199219 120.476562 249.433594 120.128906 249.734375 119.824219 C 250.039062 119.519531 250.386719 119.289062 250.785156 119.125 C 251.179688 118.960938 251.59375 118.878906 252.023438 118.878906 C 252.449219 118.878906 252.863281 118.960938 253.257812 119.125 C 253.65625 119.289062 254.003906 119.519531 254.308594 119.824219 C 254.609375 120.128906 254.84375 120.476562 255.007812 120.875 C 255.171875 121.269531 255.253906 121.683594 255.253906 122.113281 Z M 255.253906 122.113281 " fill-opacity="1" fill-rule="nonzero"/></g><g fill="#000000" fill-opacity="1"><g transform="translate(92.486393, 240.92121)"><g><path d="M 19.9375 -19.6875 L 6.296875 -3.390625 L 20.09375 -3.390625 L 20.09375 0 L 1.1875 0 L 1.1875 -2.71875 L 14.84375 -19.015625 L 1.59375 -19.015625 L 1.59375 -22.40625 L 19.9375 -22.40625 Z M 19.9375 -19.6875 "/></g></g></g><g fill="#000000" fill-opacity="1"><g transform="translate(115.425152, 240.92121)"><g><path d="M 6.71875 0 L 2.9375 0 L 2.9375 -22.40625 L 6.71875 -22.40625 Z M 6.71875 0 "/></g></g></g><g fill="#000000" fill-opacity="1"><g transform="translate(126.718782, 240.92121)"><g><path d="M 2.9375 -22.40625 L 11.875 -22.40625 C 14.6875 -22.40625 16.863281 -21.738281 18.40625 -20.40625 C 19.957031 -19.070312 20.734375 -17.1875 20.734375 -14.75 C 20.734375 -12.207031 19.957031 -10.238281 18.40625 -8.84375 C 16.863281 -7.445312 14.6875 -6.75 11.875 -6.75 L 6.71875 -6.75 L 6.71875 0 L 2.9375 0 Z M 6.71875 -19.015625 L 6.71875 -10.140625 L 11.71875 -10.140625 C 15.320312 -10.140625 17.125 -11.644531 17.125 -14.65625 C 17.125 -17.5625 15.320312 -19.015625 11.71875 -19.015625 Z M 6.71875 -19.015625 "/></g></g></g><g fill="#000000" fill-opacity="1"><g transform="translate(149.881491, 240.92121)"><g><path d="M 18.234375 -19.015625 L 11.140625 -19.015625 L 11.140625 0 L 7.359375 0 L 7.359375 -19.015625 L 0.28125 -19.015625 L 0.28125 -22.40625 L 18.234375 -22.40625 Z M 18.234375 -19.015625 "/></g></g></g><g fill="#000000" fill-opacity="1"><g transform="translate(170.036944, 240.92121)"><g><path d="M 6.71875 0 L 2.9375 0 L 2.9375 -22.40625 L 6.71875 -22.40625 Z M 6.71875 0 "/></g></g></g><g fill="#000000" fill-opacity="1"><g transform="translate(181.330574, 240.92121)"><g><path d="M 18.9375 -19.015625 L 6.71875 -19.015625 L 6.71875 -12.953125 L 17.65625 -12.953125 L 17.65625 -9.5625 L 6.71875 -9.5625 L 6.71875 -3.390625 L 19.328125 -3.390625 L 19.328125 0 L 2.9375 0 L 2.9375 -22.40625 L 18.9375 -22.40625 Z M 18.9375 -19.015625 "/></g></g></g><g fill="#000000" fill-opacity="1"><g transform="translate(203.949414, 240.92121)"><g><path d="M 2.046875 -3.34375 C 2.429688 -3.738281 2.910156 -3.9375 3.484375 -3.9375 C 4.066406 -3.9375 4.546875 -3.738281 4.921875 -3.34375 C 5.304688 -2.945312 5.5 -2.453125 5.5 -1.859375 C 5.5 -1.234375 5.304688 -0.71875 4.921875 -0.3125 C 4.546875 0.0820312 4.066406 0.28125 3.484375 0.28125 C 2.910156 0.28125 2.429688 0.0820312 2.046875 -0.3125 C 1.660156 -0.71875 1.46875 -1.234375 1.46875 -1.859375 C 1.46875 -2.453125 1.660156 -2.945312 2.046875 -3.34375 Z M 2.046875 -3.34375 "/></g></g></g><g fill="#000000" fill-opacity="1"><g transform="translate(212.555691, 240.92121)"><g><path d="M 17.40625 -5.0625 L 6.109375 -5.0625 L 3.96875 0 L 0.03125 0 L 9.921875 -22.40625 L 13.796875 -22.40625 L 23.578125 0 L 19.546875 0 Z M 15.96875 -8.421875 L 11.75 -18.375 L 7.515625 -8.421875 Z M 15.96875 -8.421875 "/></g></g></g><g fill="#000000" fill-opacity="1"><g transform="translate(237.7979, 240.92121)"><g><path d="M 2.9375 -22.40625 L 11.875 -22.40625 C 14.6875 -22.40625 16.863281 -21.738281 18.40625 -20.40625 C 19.957031 -19.070312 20.734375 -17.1875 20.734375 -14.75 C 20.734375 -12.207031 19.957031 -10.238281 18.40625 -8.84375 C 16.863281 -7.445312 14.6875 -6.75 11.875 -6.75 L 6.71875 -6.75 L 6.71875 0 L 2.9375 0 Z M 6.71875 -19.015625 L 6.71875 -10.140625 L 11.71875 -10.140625 C 15.320312 -10.140625 17.125 -11.644531 17.125 -14.65625 C 17.125 -17.5625 15.320312 -19.015625 11.71875 -19.015625 Z M 6.71875 -19.015625 "/></g></g></g><g fill="#000000" fill-opacity="1"><g transform="translate(260.960603, 240.92121)"><g><path d="M 2.9375 -22.40625 L 11.875 -22.40625 C 14.6875 -22.40625 16.863281 -21.738281 18.40625 -20.40625 C 19.957031 -19.070312 20.734375 -17.1875 20.734375 -14.75 C 20.734375 -12.207031 19.957031 -10.238281 18.40625 -8.84375 C 16.863281 -7.445312 14.6875 -6.75 11.875 -6.75 L 6.71875 -6.75 L 6.71875 0 L 2.9375 0 Z M 6.71875 -19.015625 L 6.71875 -10.140625 L 11.71875 -10.140625 C 15.320312 -10.140625 17.125 -11.644531 17.125 -14.65625 C 17.125 -17.5625 15.320312 -19.015625 11.71875 -19.015625 Z M 6.71875 -19.015625 "/></g></g></g><g fill="#004aad" fill-opacity="1"><g transform="translate(134.330807, 264.40925)"><g><path d="M 5.625 -12.328125 C 7.21875 -12.328125 8.644531 -11.90625 9.90625 -11.0625 L 9.0625 -9.25 C 7.8125 -10.007812 6.613281 -10.390625 5.46875 -10.390625 C 4.851562 -10.390625 4.367188 -10.273438 4.015625 -10.046875 C 3.660156 -9.828125 3.484375 -9.515625 3.484375 -9.109375 C 3.484375 -8.703125 3.644531 -8.351562 3.96875 -8.0625 C 4.289062 -7.78125 4.695312 -7.570312 5.1875 -7.4375 C 5.675781 -7.300781 6.207031 -7.128906 6.78125 -6.921875 C 7.351562 -6.722656 7.882812 -6.507812 8.375 -6.28125 C 8.863281 -6.050781 9.269531 -5.695312 9.59375 -5.21875 C 9.914062 -4.738281 10.078125 -4.15625 10.078125 -3.46875 C 10.078125 -2.394531 9.644531 -1.535156 8.78125 -0.890625 C 7.925781 -0.253906 6.816406 0.0625 5.453125 0.0625 C 4.523438 0.0625 3.625 -0.109375 2.75 -0.453125 C 1.875 -0.804688 1.109375 -1.28125 0.453125 -1.875 L 1.34375 -3.65625 C 1.957031 -3.082031 2.632812 -2.640625 3.375 -2.328125 C 4.125 -2.023438 4.828125 -1.875 5.484375 -1.875 C 6.210938 -1.875 6.773438 -2.003906 7.171875 -2.265625 C 7.578125 -2.523438 7.78125 -2.890625 7.78125 -3.359375 C 7.78125 -3.773438 7.613281 -4.125 7.28125 -4.40625 C 6.957031 -4.695312 6.550781 -4.910156 6.0625 -5.046875 C 5.570312 -5.179688 5.039062 -5.34375 4.46875 -5.53125 C 3.90625 -5.726562 3.378906 -5.929688 2.890625 -6.140625 C 2.398438 -6.359375 1.988281 -6.707031 1.65625 -7.1875 C 1.332031 -7.664062 1.171875 -8.242188 1.171875 -8.921875 C 1.171875 -9.953125 1.578125 -10.773438 2.390625 -11.390625 C 3.210938 -12.015625 4.289062 -12.328125 5.625 -12.328125 Z M 5.625 -12.328125 "/></g></g></g><g fill="#004aad" fill-opacity="1"><g transform="translate(149.893078, 264.40925)"><g><path d="M 9.96875 -10.390625 L 6.078125 -10.390625 L 6.078125 0 L 4.015625 0 L 4.015625 -10.390625 L 0.15625 -10.390625 L 0.15625 -12.234375 L 9.96875 -12.234375 Z M 9.96875 -10.390625 "/></g></g></g><g fill="#004aad" fill-opacity="1"><g transform="translate(164.703483, 264.40925)"><g><path d="M 12.015625 -12.234375 L 12.015625 -5.078125 C 12.015625 -3.472656 11.539062 -2.207031 10.59375 -1.28125 C 9.644531 -0.363281 8.34375 0.09375 6.6875 0.09375 C 5.039062 0.09375 3.738281 -0.363281 2.78125 -1.28125 C 1.832031 -2.207031 1.359375 -3.472656 1.359375 -5.078125 L 1.359375 -12.234375 L 3.421875 -12.234375 L 3.421875 -5.078125 C 3.421875 -4.046875 3.710938 -3.234375 4.296875 -2.640625 C 4.890625 -2.054688 5.695312 -1.765625 6.71875 -1.765625 C 7.71875 -1.765625 8.503906 -2.054688 9.078125 -2.640625 C 9.660156 -3.222656 9.953125 -4.035156 9.953125 -5.078125 L 9.953125 -12.234375 Z M 12.015625 -12.234375 "/></g></g></g><g fill="#004aad" fill-opacity="1"><g transform="translate(182.748669, 264.40925)"><g><path d="M 1.609375 -12.234375 L 6.625 -12.234375 C 8.457031 -12.234375 9.96875 -11.65625 11.15625 -10.5 C 12.351562 -9.351562 12.953125 -7.894531 12.953125 -6.125 C 12.953125 -4.351562 12.351562 -2.890625 11.15625 -1.734375 C 9.957031 -0.578125 8.429688 0 6.578125 0 L 1.609375 0 Z M 3.671875 -10.390625 L 3.671875 -1.859375 L 6.671875 -1.859375 C 7.878906 -1.859375 8.878906 -2.253906 9.671875 -3.046875 C 10.472656 -3.847656 10.875 -4.863281 10.875 -6.09375 C 10.875 -7.332031 10.460938 -8.359375 9.640625 -9.171875 C 8.816406 -9.984375 7.800781 -10.390625 6.59375 -10.390625 Z M 3.671875 -10.390625 "/></g></g></g><g fill="#004aad" fill-opacity="1"><g transform="translate(200.986202, 264.40925)"><g><path d="M 3.671875 0 L 1.609375 0 L 1.609375 -12.234375 L 3.671875 -12.234375 Z M 3.671875 0 "/></g></g></g><g fill="#004aad" fill-opacity="1"><g transform="translate(210.953153, 264.40925)"><g><path d="M 2.46875 -10.515625 C 3.71875 -11.703125 5.253906 -12.296875 7.078125 -12.296875 C 8.910156 -12.296875 10.445312 -11.703125 11.6875 -10.515625 C 12.9375 -9.335938 13.5625 -7.875 13.5625 -6.125 C 13.5625 -4.375 12.9375 -2.898438 11.6875 -1.703125 C 10.445312 -0.503906 8.910156 0.09375 7.078125 0.09375 C 5.253906 0.09375 3.71875 -0.503906 2.46875 -1.703125 C 1.21875 -2.898438 0.59375 -4.375 0.59375 -6.125 C 0.59375 -7.875 1.21875 -9.335938 2.46875 -10.515625 Z M 7.09375 -10.4375 C 5.882812 -10.4375 4.847656 -10.019531 3.984375 -9.1875 C 3.117188 -8.351562 2.6875 -7.328125 2.6875 -6.109375 C 2.6875 -4.898438 3.117188 -3.875 3.984375 -3.03125 C 4.859375 -2.1875 5.894531 -1.765625 7.09375 -1.765625 C 8.300781 -1.765625 9.328125 -2.1875 10.171875 -3.03125 C 11.023438 -3.875 11.453125 -4.898438 11.453125 -6.109375 C 11.453125 -7.328125 11.023438 -8.351562 10.171875 -9.1875 C 9.328125 -10.019531 8.300781 -10.4375 7.09375 -10.4375 Z M 7.09375 -10.4375 "/></g></g></g><g fill="#004aad" fill-opacity="1"><g transform="translate(229.802671, 264.40925)"><g><path d="M 5.625 -12.328125 C 7.21875 -12.328125 8.644531 -11.90625 9.90625 -11.0625 L 9.0625 -9.25 C 7.8125 -10.007812 6.613281 -10.390625 5.46875 -10.390625 C 4.851562 -10.390625 4.367188 -10.273438 4.015625 -10.046875 C 3.660156 -9.828125 3.484375 -9.515625 3.484375 -9.109375 C 3.484375 -8.703125 3.644531 -8.351562 3.96875 -8.0625 C 4.289062 -7.78125 4.695312 -7.570312 5.1875 -7.4375 C 5.675781 -7.300781 6.207031 -7.128906 6.78125 -6.921875 C 7.351562 -6.722656 7.882812 -6.507812 8.375 -6.28125 C 8.863281 -6.050781 9.269531 -5.695312 9.59375 -5.21875 C 9.914062 -4.738281 10.078125 -4.15625 10.078125 -3.46875 C 10.078125 -2.394531 9.644531 -1.535156 8.78125 -0.890625 C 7.925781 -0.253906 6.816406 0.0625 5.453125 0.0625 C 4.523438 0.0625 3.625 -0.109375 2.75 -0.453125 C 1.875 -0.804688 1.109375 -1.28125 0.453125 -1.875 L 1.34375 -3.65625 C 1.957031 -3.082031 2.632812 -2.640625 3.375 -2.328125 C 4.125 -2.023438 4.828125 -1.875 5.484375 -1.875 C 6.210938 -1.875 6.773438 -2.003906 7.171875 -2.265625 C 7.578125 -2.523438 7.78125 -2.890625 7.78125 -3.359375 C 7.78125 -3.773438 7.613281 -4.125 7.28125 -4.40625 C 6.957031 -4.695312 6.550781 -4.910156 6.0625 -5.046875 C 5.570312 -5.179688 5.039062 -5.34375 4.46875 -5.53125 C 3.90625 -5.726562 3.378906 -5.929688 2.890625 -6.140625 C 2.398438 -6.359375 1.988281 -6.707031 1.65625 -7.1875 C 1.332031 -7.664062 1.171875 -8.242188 1.171875 -8.921875 C 1.171875 -9.953125 1.578125 -10.773438 2.390625 -11.390625 C 3.210938 -12.015625 4.289062 -12.328125 5.625 -12.328125 Z M 5.625 -12.328125 "/></g></g></g></svg>